<svg xmlns="http://www.w3.org/2000/svg" width="25" height="25.001" viewBox="0 0 25 25.001">
  <path id="phone" d="M24.654,20.789l-3.525,3.5A2.55,2.55,0,0,1,19.248,25c-2.97-.089-5.778-1.548-8.083-3.046A31.178,31.178,0,0,1,1.729,11.664C.893,9.934-.088,7.727.006,5.8A2.567,2.567,0,0,1,.722,3.889L4.247.366A1.166,1.166,0,0,1,6.155.684L8.991,6.061a1.562,1.562,0,0,1-.318,1.775l-1.3,1.3a.64.64,0,0,0-.133.371,11.071,11.071,0,0,0,3.339,4.927c1.333,1.223,2.765,2.879,4.625,3.272a.732.732,0,0,0,.676-.066l1.51-1.536a1.725,1.725,0,0,1,1.829-.265h.026l5.115,3.02a1.231,1.231,0,0,1,.292,1.933Z" transform="translate(0 0)" fill="#414142"/>
</svg>
